<svg xmlns="http://www.w3.org/2000/svg" viewBox="0 0 1366 768">
  <path d="M368.3 360.7v84.25h-18.53V360.7h18.53zM400.75 360.7v34.93l32.92-34.93h23.13l-32.92 33.28 36.11 50.98h-23.25l-25.37-37.88-10.62 10.74v27.14h-18.53V360.7h18.53zM528.07 360.7v15.58h-44.49v18.05h40.83v14.4h-40.83v20.65h45.43v15.58h-63.96V360.7h63.02zM584.59 360.7c3.78 0 7.18.61 10.21 1.83 3.03 1.22 5.62 2.89 7.79 5.01 2.16 2.12 3.81 4.58 4.96 7.38 1.14 2.79 1.71 5.8 1.71 9.03 0 4.96-1.04 9.24-3.13 12.86-2.09 3.62-5.49 6.37-10.21 8.26v.24c2.28.63 4.17 1.59 5.66 2.89a16.24 16.24 0 013.66 4.6c.94 1.77 1.63 3.72 2.06 5.84.43 2.12.73 4.25.88 6.37.08 1.34.16 2.91.24 4.72.08 1.81.22 3.66.41 5.55.2 1.89.51 3.68.94 5.37.43 1.69 1.08 3.13 1.95 4.31h-18.53c-1.02-2.67-1.65-5.86-1.89-9.56s-.59-7.24-1.06-10.62c-.63-4.4-1.97-7.63-4.01-9.68-2.05-2.04-5.39-3.07-10.03-3.07h-18.53v32.92h-18.53V360.7h45.45zm-6.6 38.12c4.25 0 7.43-.94 9.56-2.83 2.12-1.89 3.19-4.96 3.19-9.2 0-4.09-1.06-7.06-3.19-8.91-2.12-1.85-5.31-2.77-9.56-2.77h-20.3v23.72h20.3zM694.45 360.7l31.51 84.25h-19.23l-6.37-18.76h-31.51l-6.61 18.76H643.6l31.86-84.25h18.99zm1.06 51.69l-10.62-30.92h-.24l-10.98 30.92h21.84zM780.83 444.31c-4.01 1.69-8.06 2.54-12.15 2.54-6.45 0-12.25-1.12-17.41-3.36-5.15-2.24-9.5-5.33-13.04-9.26-3.54-3.93-6.25-8.55-8.14-13.87-1.89-5.31-2.83-11.03-2.83-17.17 0-6.29.94-12.13 2.83-17.52 1.89-5.39 4.6-10.09 8.14-14.1 3.54-4.01 7.89-7.16 13.04-9.44 5.15-2.28 10.95-3.42 17.41-3.42 4.33 0 8.51.65 12.57 1.95 4.05 1.3 7.71 3.21 10.97 5.72 3.26 2.52 5.96 5.62 8.08 9.32s3.42 7.95 3.89 12.74h-17.7c-1.1-4.72-3.23-8.26-6.37-10.62-3.15-2.36-6.96-3.54-11.45-3.54-4.17 0-7.71.81-10.62 2.42-2.91 1.61-5.27 3.78-7.08 6.49-1.81 2.71-3.13 5.8-3.95 9.26-.83 3.46-1.24 7.04-1.24 10.74 0 3.54.41 6.98 1.24 10.33.83 3.34 2.14 6.35 3.95 9.03 1.81 2.67 4.17 4.82 7.08 6.43 2.91 1.61 6.45 2.42 10.62 2.42 6.14 0 10.87-1.55 14.22-4.66 3.34-3.11 5.29-7.61 5.84-13.51h-18.64v-13.81h35.4v45.55h-11.8l-1.89-9.56c-3.3 4.24-6.96 7.21-10.97 8.9zM880.06 438.52c-6.37 5.55-15.18 8.32-26.43 8.32-11.41 0-20.24-2.75-26.49-8.26s-9.38-14-9.38-25.49V360.7h18.53v52.39c0 2.28.2 4.52.59 6.73.39 2.2 1.22 4.15 2.48 5.84 1.26 1.69 3.01 3.07 5.25 4.13s5.25 1.59 9.03 1.59c6.61 0 11.17-1.47 13.69-4.42 2.52-2.95 3.78-7.57 3.78-13.87V360.7h18.53v52.39c-.02 11.41-3.2 19.89-9.58 25.43zM921.72 360.7v84.25h-18.53V360.7h18.53zM981.07 360.7c3.78 0 7.18.61 10.21 1.83 3.03 1.22 5.62 2.89 7.79 5.01 2.16 2.12 3.81 4.58 4.96 7.38 1.14 2.79 1.71 5.8 1.71 9.03 0 4.96-1.04 9.24-3.13 12.86-2.09 3.62-5.49 6.37-10.21 8.26v.24c2.28.63 4.17 1.59 5.66 2.89a16.24 16.24 0 013.66 4.6c.94 1.77 1.63 3.72 2.07 5.84.43 2.12.73 4.25.88 6.37.08 1.34.16 2.91.24 4.72.08 1.81.22 3.66.41 5.55.2 1.89.51 3.68.94 5.37.43 1.69 1.08 3.13 1.95 4.31h-18.53c-1.02-2.67-1.65-5.86-1.89-9.56s-.59-7.24-1.06-10.62c-.63-4.4-1.97-7.63-4.01-9.68-2.05-2.04-5.39-3.07-10.03-3.07h-18.53v32.92h-18.53V360.7h45.44zm-6.61 38.12c4.25 0 7.43-.94 9.56-2.83 2.12-1.89 3.19-4.96 3.19-9.2 0-4.09-1.06-7.06-3.19-8.91-2.12-1.85-5.31-2.77-9.56-2.77h-20.3v23.72h20.3zM1063.91 360.7c3.78 0 7.18.61 10.21 1.83 3.03 1.22 5.62 2.89 7.79 5.01 2.16 2.12 3.81 4.58 4.96 7.38 1.14 2.79 1.71 5.8 1.71 9.03 0 4.96-1.04 9.24-3.13 12.86-2.09 3.62-5.49 6.37-10.21 8.26v.24c2.28.63 4.17 1.59 5.66 2.89a16.24 16.24 0 013.66 4.6c.94 1.77 1.63 3.72 2.07 5.84.43 2.12.73 4.25.88 6.37.08 1.34.16 2.91.24 4.72.08 1.81.22 3.66.41 5.55.2 1.89.51 3.68.94 5.37.43 1.69 1.08 3.13 1.95 4.31h-18.53c-1.02-2.67-1.65-5.86-1.89-9.56s-.59-7.24-1.06-10.62c-.63-4.4-1.97-7.63-4.01-9.68-2.05-2.04-5.39-3.07-10.03-3.07H1037v32.92h-18.53V360.7h45.44zm-6.61 38.12c4.25 0 7.43-.94 9.56-2.83 2.12-1.89 3.19-4.96 3.19-9.2 0-4.09-1.06-7.06-3.19-8.91-2.12-1.85-5.31-2.77-9.56-2.77H1037v23.72h20.3zM1164.32 360.7v15.58h-44.49v18.05h40.83v14.4h-40.83v20.65h45.43v15.58h-63.96V360.7h63.02z"/>
  <g>
    <path d="M261.72 349.25c30.35 0 54.95 24.6 54.95 54.95s-24.6 54.95-54.95 54.95-54.95-24.6-54.95-54.95 24.6-54.95 54.95-54.95m0-5.98c-33.59 0-60.92 27.33-60.92 60.92s27.33 60.92 60.92 60.92 60.92-27.33 60.92-60.92-27.33-60.92-60.92-60.92z"/>
    <path d="M261.83 397.22c-19.73 0-37.99-12.18-46.53-31.04l6.34-2.87c7.42 16.37 23.19 26.95 40.19 26.95 17.06 0 32.38-10.16 39.98-26.52l6.32 2.93c-8.76 18.84-26.5 30.55-46.3 30.55zM272.661 413.16l11.731-11.732 11.73 11.731-11.73 11.731zM250.146 435.663l11.731-11.731 11.73 11.73-11.73 11.732zM227.536 413.054l11.731-11.731 11.73 11.73-11.73 11.732z"/>
  </g>
</svg>
